<mxfile host="app.diagrams.net" modified="2023-12-21T02:57:32.562Z" agent="Mozilla/5.0 (Windows NT 10.0; Win64; x64; rv:120.0) Gecko/20100101 Firefox/120.0" etag="2ELWHm6HrN8j40lBRZt4" version="22.1.11" type="device">
  <diagram id="C5RBs43oDa-KdzZeNtuy" name="Page-1">
    <mxGraphModel dx="1366" dy="718" grid="1" gridSize="10" guides="1" tooltips="1" connect="1" arrows="1" fold="1" page="1" pageScale="1" pageWidth="827" pageHeight="1169" math="0" shadow="0">
      <root>
        <mxCell id="WIyWlLk6GJQsqaUBKTNV-0" />
        <mxCell id="WIyWlLk6GJQsqaUBKTNV-1" parent="WIyWlLk6GJQsqaUBKTNV-0" />
        <mxCell id="iDdvPbXYIYBsUD1OncUd-0" value="event_times" style="swimlane;fontStyle=0;childLayout=stackLayout;horizontal=1;startSize=30;horizontalStack=0;resizeParent=1;resizeParentMax=0;resizeLast=0;collapsible=1;marginBottom=0;whiteSpace=wrap;html=1;" vertex="1" parent="WIyWlLk6GJQsqaUBKTNV-1">
          <mxGeometry x="640" y="120" width="140" height="90" as="geometry" />
        </mxCell>
        <mxCell id="iDdvPbXYIYBsUD1OncUd-1" value="&lt;div&gt;1 cell per trial&lt;/div&gt;" style="text;strokeColor=none;fillColor=none;align=left;verticalAlign=middle;spacingLeft=4;spacingRight=4;overflow=hidden;points=[[0,0.5],[1,0.5]];portConstraint=eastwest;rotatable=0;whiteSpace=wrap;html=1;" vertex="1" parent="iDdvPbXYIYBsUD1OncUd-0">
          <mxGeometry y="30" width="140" height="30" as="geometry" />
        </mxCell>
        <mxCell id="iDdvPbXYIYBsUD1OncUd-47" value="timestamp for each event" style="text;strokeColor=none;fillColor=none;align=left;verticalAlign=middle;spacingLeft=4;spacingRight=4;overflow=hidden;points=[[0,0.5],[1,0.5]];portConstraint=eastwest;rotatable=0;whiteSpace=wrap;html=1;" vertex="1" parent="iDdvPbXYIYBsUD1OncUd-0">
          <mxGeometry y="60" width="140" height="30" as="geometry" />
        </mxCell>
        <mxCell id="iDdvPbXYIYBsUD1OncUd-35" style="edgeStyle=orthogonalEdgeStyle;rounded=0;orthogonalLoop=1;jettySize=auto;html=1;" edge="1" parent="WIyWlLk6GJQsqaUBKTNV-1" source="iDdvPbXYIYBsUD1OncUd-8" target="iDdvPbXYIYBsUD1OncUd-31">
          <mxGeometry relative="1" as="geometry" />
        </mxCell>
        <mxCell id="iDdvPbXYIYBsUD1OncUd-8" value="withinState" style="swimlane;fontStyle=0;childLayout=stackLayout;horizontal=1;startSize=30;horizontalStack=0;resizeParent=1;resizeParentMax=0;resizeLast=0;collapsible=1;marginBottom=0;whiteSpace=wrap;html=1;" vertex="1" parent="WIyWlLk6GJQsqaUBKTNV-1">
          <mxGeometry x="250" y="130" width="140" height="90" as="geometry" />
        </mxCell>
        <mxCell id="iDdvPbXYIYBsUD1OncUd-9" value="eventName(s)" style="text;strokeColor=none;fillColor=none;align=left;verticalAlign=middle;spacingLeft=4;spacingRight=4;overflow=hidden;points=[[0,0.5],[1,0.5]];portConstraint=eastwest;rotatable=0;whiteSpace=wrap;html=1;" vertex="1" parent="iDdvPbXYIYBsUD1OncUd-8">
          <mxGeometry y="30" width="140" height="30" as="geometry" />
        </mxCell>
        <mxCell id="iDdvPbXYIYBsUD1OncUd-10" value="stateName(s)" style="text;strokeColor=none;fillColor=none;align=left;verticalAlign=middle;spacingLeft=4;spacingRight=4;overflow=hidden;points=[[0,0.5],[1,0.5]];portConstraint=eastwest;rotatable=0;whiteSpace=wrap;html=1;" vertex="1" parent="iDdvPbXYIYBsUD1OncUd-8">
          <mxGeometry y="60" width="140" height="30" as="geometry" />
        </mxCell>
        <mxCell id="iDdvPbXYIYBsUD1OncUd-36" style="edgeStyle=orthogonalEdgeStyle;rounded=0;orthogonalLoop=1;jettySize=auto;html=1;entryX=0.5;entryY=0;entryDx=0;entryDy=0;" edge="1" parent="WIyWlLk6GJQsqaUBKTNV-1" source="iDdvPbXYIYBsUD1OncUd-16" target="iDdvPbXYIYBsUD1OncUd-31">
          <mxGeometry relative="1" as="geometry" />
        </mxCell>
        <mxCell id="iDdvPbXYIYBsUD1OncUd-16" value="excludeState" style="swimlane;fontStyle=0;childLayout=stackLayout;horizontal=1;startSize=30;horizontalStack=0;resizeParent=1;resizeParentMax=0;resizeLast=0;collapsible=1;marginBottom=0;whiteSpace=wrap;html=1;" vertex="1" parent="WIyWlLk6GJQsqaUBKTNV-1">
          <mxGeometry x="250" y="250" width="140" height="90" as="geometry" />
        </mxCell>
        <mxCell id="iDdvPbXYIYBsUD1OncUd-17" value="eventName(s)" style="text;strokeColor=none;fillColor=none;align=left;verticalAlign=middle;spacingLeft=4;spacingRight=4;overflow=hidden;points=[[0,0.5],[1,0.5]];portConstraint=eastwest;rotatable=0;whiteSpace=wrap;html=1;" vertex="1" parent="iDdvPbXYIYBsUD1OncUd-16">
          <mxGeometry y="30" width="140" height="30" as="geometry" />
        </mxCell>
        <mxCell id="iDdvPbXYIYBsUD1OncUd-18" value="stateName(s)" style="text;strokeColor=none;fillColor=none;align=left;verticalAlign=middle;spacingLeft=4;spacingRight=4;overflow=hidden;points=[[0,0.5],[1,0.5]];portConstraint=eastwest;rotatable=0;whiteSpace=wrap;html=1;" vertex="1" parent="iDdvPbXYIYBsUD1OncUd-16">
          <mxGeometry y="60" width="140" height="30" as="geometry" />
        </mxCell>
        <mxCell id="iDdvPbXYIYBsUD1OncUd-19" value="priorToEvent" style="swimlane;fontStyle=0;childLayout=stackLayout;horizontal=1;startSize=30;horizontalStack=0;resizeParent=1;resizeParentMax=0;resizeLast=0;collapsible=1;marginBottom=0;whiteSpace=wrap;html=1;" vertex="1" parent="WIyWlLk6GJQsqaUBKTNV-1">
          <mxGeometry x="250" y="610" width="140" height="90" as="geometry" />
        </mxCell>
        <mxCell id="iDdvPbXYIYBsUD1OncUd-20" value="eventName(s)" style="text;strokeColor=none;fillColor=none;align=left;verticalAlign=middle;spacingLeft=4;spacingRight=4;overflow=hidden;points=[[0,0.5],[1,0.5]];portConstraint=eastwest;rotatable=0;whiteSpace=wrap;html=1;" vertex="1" parent="iDdvPbXYIYBsUD1OncUd-19">
          <mxGeometry y="30" width="140" height="30" as="geometry" />
        </mxCell>
        <mxCell id="iDdvPbXYIYBsUD1OncUd-21" value="priorToEvent" style="text;strokeColor=none;fillColor=none;align=left;verticalAlign=middle;spacingLeft=4;spacingRight=4;overflow=hidden;points=[[0,0.5],[1,0.5]];portConstraint=eastwest;rotatable=0;whiteSpace=wrap;html=1;" vertex="1" parent="iDdvPbXYIYBsUD1OncUd-19">
          <mxGeometry y="60" width="140" height="30" as="geometry" />
        </mxCell>
        <mxCell id="iDdvPbXYIYBsUD1OncUd-22" value="priorToState" style="swimlane;fontStyle=0;childLayout=stackLayout;horizontal=1;startSize=30;horizontalStack=0;resizeParent=1;resizeParentMax=0;resizeLast=0;collapsible=1;marginBottom=0;whiteSpace=wrap;html=1;" vertex="1" parent="WIyWlLk6GJQsqaUBKTNV-1">
          <mxGeometry x="250" y="370" width="140" height="90" as="geometry" />
        </mxCell>
        <mxCell id="iDdvPbXYIYBsUD1OncUd-23" value="eventName(s)" style="text;strokeColor=none;fillColor=none;align=left;verticalAlign=middle;spacingLeft=4;spacingRight=4;overflow=hidden;points=[[0,0.5],[1,0.5]];portConstraint=eastwest;rotatable=0;whiteSpace=wrap;html=1;" vertex="1" parent="iDdvPbXYIYBsUD1OncUd-22">
          <mxGeometry y="30" width="140" height="30" as="geometry" />
        </mxCell>
        <mxCell id="iDdvPbXYIYBsUD1OncUd-24" value="stateName(s)" style="text;strokeColor=none;fillColor=none;align=left;verticalAlign=middle;spacingLeft=4;spacingRight=4;overflow=hidden;points=[[0,0.5],[1,0.5]];portConstraint=eastwest;rotatable=0;whiteSpace=wrap;html=1;" vertex="1" parent="iDdvPbXYIYBsUD1OncUd-22">
          <mxGeometry y="60" width="140" height="30" as="geometry" />
        </mxCell>
        <mxCell id="iDdvPbXYIYBsUD1OncUd-25" value="afterState" style="swimlane;fontStyle=0;childLayout=stackLayout;horizontal=1;startSize=30;horizontalStack=0;resizeParent=1;resizeParentMax=0;resizeLast=0;collapsible=1;marginBottom=0;whiteSpace=wrap;html=1;" vertex="1" parent="WIyWlLk6GJQsqaUBKTNV-1">
          <mxGeometry x="250" y="490" width="140" height="90" as="geometry" />
        </mxCell>
        <mxCell id="iDdvPbXYIYBsUD1OncUd-26" value="eventName(s)" style="text;strokeColor=none;fillColor=none;align=left;verticalAlign=middle;spacingLeft=4;spacingRight=4;overflow=hidden;points=[[0,0.5],[1,0.5]];portConstraint=eastwest;rotatable=0;whiteSpace=wrap;html=1;" vertex="1" parent="iDdvPbXYIYBsUD1OncUd-25">
          <mxGeometry y="30" width="140" height="30" as="geometry" />
        </mxCell>
        <mxCell id="iDdvPbXYIYBsUD1OncUd-27" value="stateName(s)" style="text;strokeColor=none;fillColor=none;align=left;verticalAlign=middle;spacingLeft=4;spacingRight=4;overflow=hidden;points=[[0,0.5],[1,0.5]];portConstraint=eastwest;rotatable=0;whiteSpace=wrap;html=1;" vertex="1" parent="iDdvPbXYIYBsUD1OncUd-25">
          <mxGeometry y="60" width="140" height="30" as="geometry" />
        </mxCell>
        <mxCell id="iDdvPbXYIYBsUD1OncUd-41" style="edgeStyle=orthogonalEdgeStyle;rounded=0;orthogonalLoop=1;jettySize=auto;html=1;entryX=0.5;entryY=0;entryDx=0;entryDy=0;" edge="1" parent="WIyWlLk6GJQsqaUBKTNV-1" source="iDdvPbXYIYBsUD1OncUd-28" target="iDdvPbXYIYBsUD1OncUd-31">
          <mxGeometry relative="1" as="geometry" />
        </mxCell>
        <mxCell id="iDdvPbXYIYBsUD1OncUd-28" value="afterEvent" style="swimlane;fontStyle=0;childLayout=stackLayout;horizontal=1;startSize=30;horizontalStack=0;resizeParent=1;resizeParentMax=0;resizeLast=0;collapsible=1;marginBottom=0;whiteSpace=wrap;html=1;" vertex="1" parent="WIyWlLk6GJQsqaUBKTNV-1">
          <mxGeometry x="250" y="730" width="140" height="90" as="geometry" />
        </mxCell>
        <mxCell id="iDdvPbXYIYBsUD1OncUd-29" value="eventName(s)" style="text;strokeColor=none;fillColor=none;align=left;verticalAlign=middle;spacingLeft=4;spacingRight=4;overflow=hidden;points=[[0,0.5],[1,0.5]];portConstraint=eastwest;rotatable=0;whiteSpace=wrap;html=1;" vertex="1" parent="iDdvPbXYIYBsUD1OncUd-28">
          <mxGeometry y="30" width="140" height="30" as="geometry" />
        </mxCell>
        <mxCell id="iDdvPbXYIYBsUD1OncUd-30" value="afterEvent" style="text;strokeColor=none;fillColor=none;align=left;verticalAlign=middle;spacingLeft=4;spacingRight=4;overflow=hidden;points=[[0,0.5],[1,0.5]];portConstraint=eastwest;rotatable=0;whiteSpace=wrap;html=1;" vertex="1" parent="iDdvPbXYIYBsUD1OncUd-28">
          <mxGeometry y="60" width="140" height="30" as="geometry" />
        </mxCell>
        <mxCell id="iDdvPbXYIYBsUD1OncUd-43" style="edgeStyle=orthogonalEdgeStyle;rounded=0;orthogonalLoop=1;jettySize=auto;html=1;" edge="1" parent="WIyWlLk6GJQsqaUBKTNV-1" source="iDdvPbXYIYBsUD1OncUd-31" target="iDdvPbXYIYBsUD1OncUd-44">
          <mxGeometry relative="1" as="geometry">
            <mxPoint x="500" y="970" as="targetPoint" />
          </mxGeometry>
        </mxCell>
        <mxCell id="iDdvPbXYIYBsUD1OncUd-31" value="logicalMatrix" style="swimlane;fontStyle=0;childLayout=stackLayout;horizontal=1;startSize=30;horizontalStack=0;resizeParent=1;resizeParentMax=0;resizeLast=0;collapsible=1;marginBottom=0;whiteSpace=wrap;html=1;" vertex="1" parent="WIyWlLk6GJQsqaUBKTNV-1">
          <mxGeometry x="430" y="840" width="140" height="90" as="geometry" />
        </mxCell>
        <mxCell id="iDdvPbXYIYBsUD1OncUd-32" value="1 cell per trial" style="text;strokeColor=none;fillColor=none;align=left;verticalAlign=middle;spacingLeft=4;spacingRight=4;overflow=hidden;points=[[0,0.5],[1,0.5]];portConstraint=eastwest;rotatable=0;whiteSpace=wrap;html=1;" vertex="1" parent="iDdvPbXYIYBsUD1OncUd-31">
          <mxGeometry y="30" width="140" height="30" as="geometry" />
        </mxCell>
        <mxCell id="iDdvPbXYIYBsUD1OncUd-33" value="logical for each event" style="text;strokeColor=none;fillColor=none;align=left;verticalAlign=middle;spacingLeft=4;spacingRight=4;overflow=hidden;points=[[0,0.5],[1,0.5]];portConstraint=eastwest;rotatable=0;whiteSpace=wrap;html=1;" vertex="1" parent="iDdvPbXYIYBsUD1OncUd-31">
          <mxGeometry y="60" width="140" height="30" as="geometry" />
        </mxCell>
        <mxCell id="iDdvPbXYIYBsUD1OncUd-37" style="edgeStyle=orthogonalEdgeStyle;rounded=0;orthogonalLoop=1;jettySize=auto;html=1;" edge="1" parent="WIyWlLk6GJQsqaUBKTNV-1" source="iDdvPbXYIYBsUD1OncUd-23" target="iDdvPbXYIYBsUD1OncUd-31">
          <mxGeometry relative="1" as="geometry" />
        </mxCell>
        <mxCell id="iDdvPbXYIYBsUD1OncUd-38" style="edgeStyle=orthogonalEdgeStyle;rounded=0;orthogonalLoop=1;jettySize=auto;html=1;" edge="1" parent="WIyWlLk6GJQsqaUBKTNV-1" source="iDdvPbXYIYBsUD1OncUd-26" target="iDdvPbXYIYBsUD1OncUd-31">
          <mxGeometry relative="1" as="geometry">
            <mxPoint x="460" y="670" as="targetPoint" />
          </mxGeometry>
        </mxCell>
        <mxCell id="iDdvPbXYIYBsUD1OncUd-40" style="edgeStyle=orthogonalEdgeStyle;rounded=0;orthogonalLoop=1;jettySize=auto;html=1;" edge="1" parent="WIyWlLk6GJQsqaUBKTNV-1" source="iDdvPbXYIYBsUD1OncUd-20" target="iDdvPbXYIYBsUD1OncUd-31">
          <mxGeometry relative="1" as="geometry" />
        </mxCell>
        <mxCell id="iDdvPbXYIYBsUD1OncUd-46" style="edgeStyle=orthogonalEdgeStyle;rounded=0;orthogonalLoop=1;jettySize=auto;html=1;" edge="1" parent="WIyWlLk6GJQsqaUBKTNV-1" source="iDdvPbXYIYBsUD1OncUd-44" target="iDdvPbXYIYBsUD1OncUd-0">
          <mxGeometry relative="1" as="geometry" />
        </mxCell>
        <mxCell id="iDdvPbXYIYBsUD1OncUd-44" value="Intersect with" style="rounded=0;whiteSpace=wrap;html=1;" vertex="1" parent="WIyWlLk6GJQsqaUBKTNV-1">
          <mxGeometry x="650" y="855" width="120" height="60" as="geometry" />
        </mxCell>
        <mxCell id="iDdvPbXYIYBsUD1OncUd-52" value="function_call" style="swimlane;fontStyle=0;childLayout=stackLayout;horizontal=1;startSize=30;horizontalStack=0;resizeParent=1;resizeParentMax=0;resizeLast=0;collapsible=1;marginBottom=0;whiteSpace=wrap;html=1;" vertex="1" parent="WIyWlLk6GJQsqaUBKTNV-1">
          <mxGeometry x="20" y="50" width="140" height="90" as="geometry" />
        </mxCell>
        <mxCell id="iDdvPbXYIYBsUD1OncUd-53" value="event name" style="text;strokeColor=none;fillColor=none;align=left;verticalAlign=middle;spacingLeft=4;spacingRight=4;overflow=hidden;points=[[0,0.5],[1,0.5]];portConstraint=eastwest;rotatable=0;whiteSpace=wrap;html=1;" vertex="1" parent="iDdvPbXYIYBsUD1OncUd-52">
          <mxGeometry y="30" width="140" height="30" as="geometry" />
        </mxCell>
        <mxCell id="iDdvPbXYIYBsUD1OncUd-54" value="params" style="text;strokeColor=none;fillColor=none;align=left;verticalAlign=middle;spacingLeft=4;spacingRight=4;overflow=hidden;points=[[0,0.5],[1,0.5]];portConstraint=eastwest;rotatable=0;whiteSpace=wrap;html=1;" vertex="1" parent="iDdvPbXYIYBsUD1OncUd-52">
          <mxGeometry y="60" width="140" height="30" as="geometry" />
        </mxCell>
        <mxCell id="iDdvPbXYIYBsUD1OncUd-69" style="edgeStyle=orthogonalEdgeStyle;rounded=0;orthogonalLoop=1;jettySize=auto;html=1;entryX=0;entryY=0.5;entryDx=0;entryDy=0;" edge="1" parent="WIyWlLk6GJQsqaUBKTNV-1" source="iDdvPbXYIYBsUD1OncUd-54" target="iDdvPbXYIYBsUD1OncUd-10">
          <mxGeometry relative="1" as="geometry" />
        </mxCell>
        <mxCell id="iDdvPbXYIYBsUD1OncUd-70" style="edgeStyle=orthogonalEdgeStyle;rounded=0;orthogonalLoop=1;jettySize=auto;html=1;entryX=0;entryY=0.5;entryDx=0;entryDy=0;" edge="1" parent="WIyWlLk6GJQsqaUBKTNV-1" source="iDdvPbXYIYBsUD1OncUd-54" target="iDdvPbXYIYBsUD1OncUd-18">
          <mxGeometry relative="1" as="geometry" />
        </mxCell>
        <mxCell id="iDdvPbXYIYBsUD1OncUd-71" style="edgeStyle=orthogonalEdgeStyle;rounded=0;orthogonalLoop=1;jettySize=auto;html=1;" edge="1" parent="WIyWlLk6GJQsqaUBKTNV-1" source="iDdvPbXYIYBsUD1OncUd-54" target="iDdvPbXYIYBsUD1OncUd-24">
          <mxGeometry relative="1" as="geometry" />
        </mxCell>
        <mxCell id="iDdvPbXYIYBsUD1OncUd-72" style="edgeStyle=orthogonalEdgeStyle;rounded=0;orthogonalLoop=1;jettySize=auto;html=1;" edge="1" parent="WIyWlLk6GJQsqaUBKTNV-1" source="iDdvPbXYIYBsUD1OncUd-54" target="iDdvPbXYIYBsUD1OncUd-27">
          <mxGeometry relative="1" as="geometry" />
        </mxCell>
        <mxCell id="iDdvPbXYIYBsUD1OncUd-73" style="edgeStyle=orthogonalEdgeStyle;rounded=0;orthogonalLoop=1;jettySize=auto;html=1;" edge="1" parent="WIyWlLk6GJQsqaUBKTNV-1" source="iDdvPbXYIYBsUD1OncUd-54" target="iDdvPbXYIYBsUD1OncUd-21">
          <mxGeometry relative="1" as="geometry" />
        </mxCell>
        <mxCell id="iDdvPbXYIYBsUD1OncUd-74" style="edgeStyle=orthogonalEdgeStyle;rounded=0;orthogonalLoop=1;jettySize=auto;html=1;" edge="1" parent="WIyWlLk6GJQsqaUBKTNV-1" source="iDdvPbXYIYBsUD1OncUd-54" target="iDdvPbXYIYBsUD1OncUd-30">
          <mxGeometry relative="1" as="geometry" />
        </mxCell>
        <mxCell id="iDdvPbXYIYBsUD1OncUd-75" style="edgeStyle=orthogonalEdgeStyle;rounded=0;orthogonalLoop=1;jettySize=auto;html=1;entryX=0.5;entryY=0;entryDx=0;entryDy=0;" edge="1" parent="WIyWlLk6GJQsqaUBKTNV-1" source="iDdvPbXYIYBsUD1OncUd-53" target="iDdvPbXYIYBsUD1OncUd-0">
          <mxGeometry relative="1" as="geometry" />
        </mxCell>
      </root>
    </mxGraphModel>
  </diagram>
</mxfile>
